<?xml version="1.0" encoding="utf-8"?>
<svg id="master-artboard" viewBox="0 0 1400 980" version="1.1" xmlns="http://www.w3.org/2000/svg" x="0px" y="0px" enable-background="new 0 0 1400 980" width="1400px" height="980px">
<g transform="matrix(-0.0020638038404285908, -0.3305872976779938, 0.3305872976779938, -0.0020638038404285908, 710.4206184702695, 506.4961119470487)">
		<g>
			<g>
				<path d="M 0 0 H 1400 V 980 H 0 V 0 Z" fill="#FFFFFF" style="fill-opacity: 0;"/>
			</g>
		</g>
	</g><g transform="matrix(1, 0, 0, 1, 5.684341886080802e-14, 1.4210854715202004e-14)">
			<g>
				<g>
					<path fill="#FFC60B" d="M212.9,121c0,0-38.8,22.2-24.2,54.3c10.3,22.7-15.2,43.6-15.2,43.6h59.9c0,0,19.1-27.1-1.8-44.9&#10;&#9;&#9;&#9;&#9;&#9;&#9;C212,157.2,208.4,135.8,212.9,121z"/>
					<path fill="#FFDF00" d="M187.9,220.3c7.2-9.2,14.7-23.9,7.5-39.6c-5.2-11.4-3.3-22.9,5.6-33.9c0.6-0.7,1.2-1.4,1.8-2.1&#10;&#9;&#9;&#9;&#9;&#9;&#9;c1.1,13,7.3,27.7,22.3,40.4c13.4,11.4,6.4,28.3,2.6,35.2H187.9z"/>
				</g>
				<g>
					<path fill="#FFC60B" d="M324.3,171.7c0,0-43.1-11.7-55.5,21.3c-8.7,23.3-41.6,20.1-41.6,20.1l42.4,42.4c0,0,32.7-5.7,30.5-33&#10;&#9;&#9;&#9;&#9;&#9;&#9;C298.1,196.6,310.7,178.9,324.3,171.7z"/>
					<path fill="#FFDF00" d="M236.5,224.1c11.6-1.4,27.3-6.5,33.3-22.7c4.4-11.8,13.8-18.5,27.9-20c0.9-0.1,1.9-0.2,2.8-0.2&#10;&#9;&#9;&#9;&#9;&#9;&#9;c-8.4,10-14.4,24.8-12.8,44.3c1.4,17.6-15.5,24.5-23,26.7L236.5,224.1z"/>
				</g>
				<g>
					<path fill="#FFC60B" d="M367.3,286.2c0,0-22.2-38.8-54.3-24.2c-22.7,10.3-43.6-15.2-43.6-15.2v59.9c0,0,27.1,19.1,44.9-1.8&#10;&#9;&#9;&#9;&#9;&#9;&#9;C331.1,285.3,352.6,281.8,367.3,286.2z"/>
					<path fill="#FFDF00" d="M268.1,261.2c9.2,7.2,23.9,14.7,39.6,7.5c11.4-5.2,22.9-3.3,33.9,5.6c0.7,0.6,1.4,1.2,2.1,1.8&#10;&#9;&#9;&#9;&#9;&#9;&#9;c-13,1.1-27.7,7.3-40.4,22.3c-11.4,13.4-28.3,6.4-35.2,2.6V261.2z"/>
				</g>
				<g>
					<path fill="#FFC60B" d="M316.7,397.6c0,0,11.7-43.1-21.3-55.5c-23.3-8.7-20.1-41.6-20.1-41.6L233,343c0,0,5.7,32.7,33,30.5&#10;&#9;&#9;&#9;&#9;&#9;&#9;C291.7,371.4,309.4,384,316.7,397.6z"/>
					<path fill="#FFDF00" d="M264.2,309.8c1.4,11.6,6.5,27.3,22.7,33.3c11.8,4.4,18.5,13.8,20,27.9c0.1,0.9,0.2,1.9,0.2,2.8&#10;&#9;&#9;&#9;&#9;&#9;&#9;c-10-8.4-24.8-14.4-44.3-12.8c-17.6,1.4-24.5-15.5-26.7-23L264.2,309.8z"/>
				</g>
				<g>
					<path fill="#FFC60B" d="M202.1,440.6c0,0,38.8-22.2,24.2-54.3c-10.3-22.7,15.2-43.6,15.2-43.6h-59.9c0,0-19.1,27.1,1.8,44.9&#10;&#9;&#9;&#9;&#9;&#9;&#9;C203,404.4,206.6,425.9,202.1,440.6z"/>
					<path fill="#FFDF00" d="M227.2,341.4c-7.2,9.2-14.7,23.9-7.5,39.6c5.2,11.4,3.3,22.9-5.6,33.9c-0.6,0.7-1.2,1.4-1.8,2.1&#10;&#9;&#9;&#9;&#9;&#9;&#9;c-1.1-13-7.3-27.7-22.3-40.4c-13.4-11.4-6.4-28.3-2.6-35.2H227.2z"/>
				</g>
				<g>
					<path fill="#FFC60B" d="M90.7,390c0,0,43.1,11.7,55.5-21.3c8.7-23.3,41.6-20.1,41.6-20.1l-42.4-42.4c0,0-32.7,5.7-30.5,33&#10;&#9;&#9;&#9;&#9;&#9;&#9;C116.9,365,104.3,382.7,90.7,390z"/>
					<path fill="#FFDF00" d="M178.6,337.5c-11.6,1.4-27.3,6.5-33.3,22.7c-4.4,11.8-13.8,18.5-27.9,20c-0.9,0.1-1.9,0.2-2.8,0.2&#10;&#9;&#9;&#9;&#9;&#9;&#9;c8.4-10,14.4-24.8,12.8-44.3c-1.4-17.6,15.5-24.5,23-26.7L178.6,337.5z"/>
				</g>
				<g>
					<path fill="#FFC60B" d="M47.7,275.4c0,0,22.2,38.8,54.3,24.2c22.7-10.3,43.6,15.2,43.6,15.2v-59.9c0,0-27.1-19.1-44.9,1.8&#10;&#9;&#9;&#9;&#9;&#9;&#9;C83.9,276.3,62.5,279.9,47.7,275.4z"/>
					<path fill="#FFDF00" d="M147,300.5c-9.2-7.2-23.9-14.7-39.6-7.5c-11.4,5.2-22.9,3.3-33.9-5.6c-0.7-0.6-1.4-1.2-2.1-1.8&#10;&#9;&#9;&#9;&#9;&#9;&#9;c13-1.1,27.7-7.3,40.4-22.3c11.4-13.4,28.3-6.4,35.2-2.6V300.5z"/>
				</g>
				<g>
					<path fill="#FFC60B" d="M98.3,164c0,0-11.7,43.1,21.3,55.5c23.3,8.7,20.1,41.6,20.1,41.6l42.4-42.4c0,0-5.7-32.7-33-30.5&#10;&#9;&#9;&#9;&#9;&#9;&#9;C123.3,190.2,105.6,177.6,98.3,164z"/>
					<path fill="#FFDF00" d="M150.8,251.9c-1.4-11.6-6.5-27.3-22.7-33.3c-11.8-4.4-18.5-13.8-20-27.9c-0.1-0.9-0.2-1.9-0.2-2.8&#10;&#9;&#9;&#9;&#9;&#9;&#9;c10,8.4,24.8,14.4,44.3,12.8c17.6-1.4,24.5,15.5,26.7,23L150.8,251.9z"/>
				</g>
			</g>
			<path d="M 290.800003 280.799988 A 83.300003 83.300003 0 0 1 207.5 364.099991 A 83.300003 83.300003 0 0 1 124.199997 280.799988 A 83.300003 83.300003 0 0 1 207.5 197.499985 A 83.300003 83.300003 0 0 1 290.800003 280.799988 Z" fill="#FFDF00"/>
			<path d="M 277.300003 280.799988 A 69.800003 69.800003 0 0 1 207.5 350.599991 A 69.800003 69.800003 0 0 1 137.699997 280.799988 A 69.800003 69.800003 0 0 1 207.5 210.999985 A 69.800003 69.800003 0 0 1 277.300003 280.799988 Z" fill="#FFC60B"/>
			<path fill="#FAA61A" d="M228.8,329.4c-38.6,0-69.8-31.3-69.8-69.8c0-13.8,4-26.8,11-37.6c-19.4,12.4-32.2,34.1-32.2,58.8&#10;&#9;&#9;&#9;&#9;c0,38.6,31.3,69.8,69.8,69.8c24.7,0,46.4-12.8,58.8-32.2C255.5,325.4,242.6,329.4,228.8,329.4z"/>
			<g>
				<path fill="#FCEC82" d="M267.1,285.5c-2.6,0-4.6-2.1-4.6-4.6c0-30.3-24.6-54.9-54.9-54.9c-2.6,0-4.6-2.1-4.6-4.6&#10;&#9;&#9;&#9;&#9;&#9;c0-2.6,2.1-4.6,4.6-4.6c35.4,0,64.2,28.8,64.2,64.2C271.7,283.4,269.6,285.5,267.1,285.5z"/>
			</g>
		</g><g transform="matrix(1, 0, 0, 1, 8.526512829121202e-14, 2.1316282072803006e-14)">
				<g>
					<path fill="#FFDF00" d="M207.5,563.5l-26.1,56.2c8.3-2.5,17-3.9,26.1-3.9c9.1,0,17.9,1.4,26.1,3.9L207.5,563.5z"/>
					<g>
						<path fill="#FFC60B" d="M207.5,563.5v52.3c-9.1,0-17.9,1.4-26.1,3.9L207.5,563.5z"/>
					</g>
				</g>
				<g>
					<path fill="#FFDF00" d="M307.4,604.8l-58.2,21.3c7.6,4,14.8,9.3,21.2,15.7c6.4,6.4,11.7,13.6,15.7,21.2L307.4,604.8z"/>
					<g>
						<path fill="#FFC60B" d="M307.4,604.8l-37,37c-6.4-6.4-13.6-11.7-21.2-15.7L307.4,604.8z"/>
					</g>
				</g>
				<g>
					<path fill="#FFDF00" d="M348.8,704.8l-56.2-26.1c2.5,8.3,3.9,17,3.9,26.1c0,9.1-1.4,17.9-3.9,26.1L348.8,704.8z"/>
					<g>
						<path fill="#FFC60B" d="M348.8,704.8h-52.3c0-9.1-1.4-17.9-3.9-26.1L348.8,704.8z"/>
					</g>
				</g>
				<g>
					<path fill="#FFDF00" d="M307.4,804.7l-21.3-58.2c-4,7.6-9.3,14.8-15.7,21.2c-6.4,6.4-13.6,11.7-21.2,15.7L307.4,804.7z"/>
					<g>
						<path fill="#FFC60B" d="M307.4,804.7l-37-37c6.4-6.4,11.7-13.6,15.7-21.2L307.4,804.7z"/>
					</g>
				</g>
				<g>
					<path fill="#FFDF00" d="M207.5,846l26.1-56.2c-8.3,2.5-17,3.9-26.1,3.9c-9.1,0-17.9-1.4-26.1-3.9L207.5,846z"/>
					<g>
						<path fill="#FFC60B" d="M207.5,846v-52.3c9.1,0,17.9-1.4,26.1-3.9L207.5,846z"/>
					</g>
				</g>
				<g>
					<path fill="#FFDF00" d="M107.6,804.7l58.2-21.3c-7.6-4-14.8-9.3-21.2-15.7c-6.4-6.4-11.7-13.6-15.7-21.2L107.6,804.7z"/>
					<g>
						<path fill="#FFC60B" d="M107.6,804.7l37-37c6.4,6.4,13.6,11.7,21.2,15.7L107.6,804.7z"/>
					</g>
				</g>
				<g>
					<path fill="#FFDF00" d="M66.2,704.8l56.2,26.1c-2.5-8.3-3.9-17-3.9-26.1c0-9.1,1.4-17.9,3.9-26.1L66.2,704.8z"/>
					<g>
						<path fill="#FFC60B" d="M66.2,704.8h52.3c0,9.1,1.4,17.9,3.9,26.1L66.2,704.8z"/>
					</g>
				</g>
				<g>
					<path fill="#FFDF00" d="M107.6,604.9l21.3,58.2c4-7.6,9.3-14.8,15.7-21.2c6.4-6.4,13.6-11.7,21.2-15.7L107.6,604.9z"/>
					<g>
						<path fill="#FFC60B" d="M107.6,604.9l37,37c-6.4,6.4-11.7,13.6-15.7,21.2L107.6,604.9z"/>
					</g>
				</g>
			</g><path d="M 290.800003 704.799988 A 83.300003 83.300003 0 0 1 207.5 788.099991 A 83.300003 83.300003 0 0 1 124.199997 704.799988 A 83.300003 83.300003 0 0 1 207.5 621.499985 A 83.300003 83.300003 0 0 1 290.800003 704.799988 Z" fill="#FFDF00" transform="matrix(1, 0, 0, 1, 1.1368683772161603e-13, 2.842170943040401e-14)"/><path d="M 277.300003 704.799988 A 69.800003 69.800003 0 0 1 207.5 774.599991 A 69.800003 69.800003 0 0 1 137.699997 704.799988 A 69.800003 69.800003 0 0 1 207.5 634.999985 A 69.800003 69.800003 0 0 1 277.300003 704.799988 Z" fill="#FFC60B" transform="matrix(1, 0, 0, 1, 1.1368683772161603e-13, 2.842170943040401e-14)"/><path fill="#FAA61A" d="M228.8,753.4c-38.6,0-69.8-31.3-69.8-69.8c0-13.8,4-26.8,11-37.6c-19.4,12.4-32.2,34.1-32.2,58.8&#10;&#9;&#9;&#9;&#9;&#9;c0,38.6,31.3,69.8,69.8,69.8c24.7,0,46.4-12.8,58.8-32.2C255.5,749.3,242.6,753.4,228.8,753.4z" transform="matrix(1, 0, 0, 1, 1.1368683772161603e-13, 2.842170943040401e-14)"/><path fill="#FCEC82" d="M148,700.1c2.6,0,4.6,2.1,4.6,4.6c0,30.3,24.6,54.9,54.9,54.9c2.6,0,4.6,2.1,4.6,4.6s-2.1,4.6-4.6,4.6&#10;&#9;&#9;&#9;&#9;&#9;&#9;c-35.4,0-64.2-28.8-64.2-64.2C143.4,702.2,145.4,700.1,148,700.1z" transform="matrix(1, 0, 0, 1, 1.4210854715202004e-13, 3.552713678800501e-14)"/><path fill="#FAA61A" d="M267.1,709.4c-2.6,0-4.6-2.1-4.6-4.6c0-30.3-24.6-54.9-54.9-54.9c-2.6,0-4.6-2.1-4.6-4.6&#10;&#9;&#9;&#9;&#9;&#9;&#9;s2.1-4.6,4.6-4.6c35.4,0,64.2,28.8,64.2,64.2C271.7,707.3,269.6,709.4,267.1,709.4z" transform="matrix(1, 0, 0, 1, 1.4210854715202004e-13, 3.552713678800501e-14)"/><g transform="matrix(1, 0, 0, 1, 8.526512829121202e-14, 2.1316282072803006e-14)">
				<g>
					<g>
						<path fill="#FFC60B" d="M874.8,125.9c-38.9,11.8-66.1,40.8-83.2,71.6c-20.5,44.4-14.4,104.5,33,129.2&#10;&#9;&#9;&#9;&#9;&#9;&#9;&#9;c-20.5-58.1-36.1-121.7,19.5-176.9C860.4,133.6,874.8,125.9,874.8,125.9z"/>
						<path fill="#FFDF00" d="M811.9,183.6c-30.7,44.2-31.5,99.3,6,136.9c-10.2-41-29.9-72.2-14.6-115.7&#10;&#9;&#9;&#9;&#9;&#9;&#9;&#9;C807.5,192.2,811.9,183.6,811.9,183.6z"/>
					</g>
				</g>
				<g>
					<g>
						<path fill="#FFC60B" d="M847,165c-43.9,35.2-57.6,110.3-13.2,151.3c-6.8-44.4-30.7-88.8-1.9-131.1C839.7,173,847,165,847,165z&#10;&#9;&#9;&#9;&#9;&#9;&#9;&#9;"/>
						<path fill="#FFDF00" d="M820.5,203.1c-9.3,17.5-26.8,62.3,7.2,103.5c-3.4-20.5-8.7-28.9-11.3-49.4&#10;&#9;&#9;&#9;&#9;&#9;&#9;&#9;C812.2,237.8,820.5,203.1,820.5,203.1z"/>
					</g>
				</g>
			</g><g transform="matrix(1, 0, 0, 1, 1.1368683772161603e-13, 2.842170943040401e-14)">
					<g>
						<path fill="#FFC60B" d="M982.1,176.9c-35.9-19.1-75.6-17.8-109.4-8.2c-45.9,16.9-84.1,63.7-68.1,114.7&#10;&#9;&#9;&#9;&#9;&#9;&#9;&#9;c26.6-55.5,60.6-111.6,138.9-111.3C966.3,172.2,982.1,176.9,982.1,176.9z"/>
						<path fill="#FFDF00" d="M896.7,173.2c-53,9.5-92.5,48-92.5,101.1c21.7-36.2,29.9-72.2,71.5-92.2&#10;&#9;&#9;&#9;&#9;&#9;&#9;&#9;C887.6,176.2,896.7,173.2,896.7,173.2z"/>
					</g>
				</g><g transform="matrix(1, 0, 0, 1, 1.4210854715202004e-13, 3.552713678800501e-14)">
						<path fill="#FFC60B" d="M934.7,184.9c-55.9-6.2-118.7,37.3-116.3,97.7c26.6-36.2,41.1-84.5,91.3-94&#10;&#9;&#9;&#9;&#9;&#9;&#9;&#9;C923.9,185.4,934.7,184.9,934.7,184.9z"/>
						<path fill="#FFDF00" d="M889,193.1c-18.9,5.8-63,25.1-68.1,78.3c12.1-16.9,14.3-26.6,26.9-43C858.6,211.7,889,193.1,889,193.1&#10;&#9;&#9;&#9;&#9;&#9;&#9;&#9;z"/>
					</g><g transform="matrix(1, 0, 0, 1, 1.1368683772161603e-13, 2.842170943040401e-14)">
					<g>
						<path fill="#FFC60B" d="M1021.8,288.8c-11.8-38.9-40.8-66.1-71.6-83.2c-44.4-20.5-104.5-14.4-129.2,33&#10;&#9;&#9;&#9;&#9;&#9;&#9;&#9;c58.1-20.5,121.7-36.1,176.9,19.5C1014,274.3,1021.8,288.8,1021.8,288.8z"/>
						<path fill="#FFDF00" d="M964.1,225.8c-44.2-30.7-99.3-31.5-136.9,6c41-10.2,72.2-29.9,115.7-14.6&#10;&#9;&#9;&#9;&#9;&#9;&#9;&#9;C955.5,221.5,964.1,225.8,964.1,225.8z"/>
					</g>
				</g><g transform="matrix(1, 0, 0, 1, 1.4210854715202004e-13, 3.552713678800501e-14)">
						<path fill="#FFC60B" d="M982.7,260.9c-35.2-43.9-110.3-57.6-151.3-13.2c44.4-6.8,88.8-30.7,131.1-1.9&#10;&#9;&#9;&#9;&#9;&#9;&#9;&#9;C974.7,253.7,982.7,260.9,982.7,260.9z"/>
						<path fill="#FFDF00" d="M944.6,234.5c-17.5-9.3-62.3-26.8-103.5,7.2c20.5-3.4,28.9-8.7,49.4-11.3&#10;&#9;&#9;&#9;&#9;&#9;&#9;&#9;C909.9,226.1,944.6,234.5,944.6,234.5z"/>
					</g><g transform="matrix(1, 0, 0, 1, 1.1368683772161603e-13, 2.842170943040401e-14)">
					<g>
						<path fill="#FFC60B" d="M970.8,396c19.1-35.9,17.8-75.6,8.2-109.4c-16.9-45.9-63.7-84.1-114.7-68.1&#10;&#9;&#9;&#9;&#9;&#9;&#9;&#9;c55.5,26.6,111.6,60.6,111.3,138.9C975.5,380.3,970.8,396,970.8,396z"/>
						<path fill="#FFDF00" d="M974.5,310.7c-9.5-53-48-92.5-101.1-92.5c36.2,21.7,72.2,29.9,92.2,71.5&#10;&#9;&#9;&#9;&#9;&#9;&#9;&#9;C971.5,301.5,974.5,310.7,974.5,310.7z"/>
					</g>
				</g><g transform="matrix(1, 0, 0, 1, 1.4210854715202004e-13, 3.552713678800501e-14)">
						<path fill="#FFC60B" d="M962.8,348.6c6.2-55.9-37.3-118.7-97.7-116.3c36.2,26.6,84.5,41.1,94,91.3&#10;&#9;&#9;&#9;&#9;&#9;&#9;&#9;C962.3,337.9,962.8,348.6,962.8,348.6z"/>
						<path fill="#FFDF00" d="M954.6,303c-5.8-18.9-25.1-63-78.3-68.1c16.9,12.1,26.6,14.3,43,26.9C936,272.6,954.6,303,954.6,303z"/>
					</g><g transform="matrix(1, 0, 0, 1, 1.1368683772161603e-13, 2.842170943040401e-14)">
					<g>
						<path fill="#FFC60B" d="M858.9,435.8c38.9-11.8,66.1-40.8,83.2-71.6c20.5-44.4,14.4-104.5-33-129.2&#10;&#9;&#9;&#9;&#9;&#9;&#9;&#9;c20.5,58.1,36.1,121.7-19.5,176.9C873.4,428,858.9,435.8,858.9,435.8z"/>
						<path fill="#FFDF00" d="M921.8,378.1c30.7-44.2,31.5-99.3-6-136.9c10.2,41,29.9,72.2,14.6,115.7&#10;&#9;&#9;&#9;&#9;&#9;&#9;&#9;C926.2,369.5,921.8,378.1,921.8,378.1z"/>
					</g>
				</g><g transform="matrix(1, 0, 0, 1, 1.4210854715202004e-13, 3.552713678800501e-14)">
						<path fill="#FFC60B" d="M886.8,396.6c43.9-35.2,57.6-110.3,13.2-151.3c6.8,44.4,30.7,88.8,1.9,131.1&#10;&#9;&#9;&#9;&#9;&#9;&#9;&#9;C894,388.7,886.8,396.6,886.8,396.6z"/>
						<path fill="#FFDF00" d="M913.2,358.5C922.5,341,940,296.2,906,255c3.4,20.5,8.7,28.9,11.3,49.4&#10;&#9;&#9;&#9;&#9;&#9;&#9;&#9;C921.5,323.9,913.2,358.5,913.2,358.5z"/>
					</g><g transform="matrix(1, 0, 0, 1, 1.1368683772161603e-13, 2.842170943040401e-14)">
					<g>
						<path fill="#FFC60B" d="M751.7,384.8c35.9,19.1,75.6,17.8,109.4,8.2c45.9-16.9,84.1-63.7,68.1-114.7&#10;&#9;&#9;&#9;&#9;&#9;&#9;&#9;c-26.6,55.5-60.6,111.6-138.9,111.3C767.4,389.5,751.7,384.8,751.7,384.8z"/>
						<path fill="#FFDF00" d="M837,388.5c53-9.5,92.5-48,92.5-101.1c-21.7,36.2-29.9,72.2-71.5,92.2&#10;&#9;&#9;&#9;&#9;&#9;&#9;&#9;C846.2,385.5,837,388.5,837,388.5z"/>
					</g>
				</g><g transform="matrix(1, 0, 0, 1, 1.4210854715202004e-13, 3.552713678800501e-14)">
						<path fill="#FFC60B" d="M799,376.8c55.9,6.2,118.7-37.3,116.3-97.7c-26.6,36.2-41.1,84.5-91.3,94&#10;&#9;&#9;&#9;&#9;&#9;&#9;&#9;C809.8,376.3,799,376.8,799,376.8z"/>
						<path fill="#FFDF00" d="M844.7,368.6c18.9-5.8,63-25.1,68.1-78.3c-12.1,16.9-14.3,26.6-26.9,43&#10;&#9;&#9;&#9;&#9;&#9;&#9;&#9;C875.1,349.9,844.7,368.6,844.7,368.6z"/>
					</g><g transform="matrix(1, 0, 0, 1, 1.1368683772161603e-13, 2.842170943040401e-14)">
					<g>
						<path fill="#FFC60B" d="M711.9,272.9c11.8,38.9,40.8,66.1,71.6,83.2c44.4,20.5,104.5,14.4,129.2-33&#10;&#9;&#9;&#9;&#9;&#9;&#9;&#9;c-58.1,20.5-121.7,36.1-176.9-19.5C719.7,287.3,711.9,272.9,711.9,272.9z"/>
						<path fill="#FFDF00" d="M769.6,335.8c44.2,30.7,99.3,31.5,136.9-6c-41,10.2-72.2,29.9-115.7,14.6&#10;&#9;&#9;&#9;&#9;&#9;&#9;&#9;C778.2,340.2,769.6,335.8,769.6,335.8z"/>
					</g>
				</g><g transform="matrix(1, 0, 0, 1, 1.4210854715202004e-13, 3.552713678800501e-14)">
						<path fill="#FFC60B" d="M751.1,300.7c35.2,43.9,110.3,57.6,151.3,13.2c-44.4,6.8-88.8,30.7-131.1,1.9&#10;&#9;&#9;&#9;&#9;&#9;&#9;&#9;C759,307.9,751.1,300.7,751.1,300.7z"/>
						<path fill="#FFDF00" d="M789.1,327.2c17.5,9.3,62.3,26.8,103.5-7.2c-20.5,3.4-28.9,8.7-49.4,11.3&#10;&#9;&#9;&#9;&#9;&#9;&#9;&#9;C823.8,335.5,789.1,327.2,789.1,327.2z"/>
					</g><g transform="matrix(1, 0, 0, 1, 1.1368683772161603e-13, 2.842170943040401e-14)">
					<g>
						<path fill="#FFC60B" d="M762.9,165.6c-19.1,35.9-17.8,75.6-8.2,109.4c16.9,45.9,63.7,84.1,114.7,68.1&#10;&#9;&#9;&#9;&#9;&#9;&#9;&#9;c-55.5-26.6-111.6-60.6-111.3-138.9C758.2,181.4,762.9,165.6,762.9,165.6z"/>
						<path fill="#FFDF00" d="M759.2,250.9c9.5,53,48,92.5,101.1,92.5c-36.2-21.7-72.2-29.9-92.2-71.5&#10;&#9;&#9;&#9;&#9;&#9;&#9;&#9;C762.2,260.1,759.2,250.9,759.2,250.9z"/>
					</g>
				</g><g transform="matrix(1, 0, 0, 1, 1.4210854715202004e-13, 3.552713678800501e-14)">
						<path fill="#FFC60B" d="M770.9,213c-6.2,55.9,37.3,118.7,97.7,116.3c-36.2-26.6-84.5-41.1-94-91.3&#10;&#9;&#9;&#9;&#9;&#9;&#9;&#9;C771.4,223.8,770.9,213,770.9,213z"/>
						<path fill="#FFDF00" d="M779.1,258.7c5.8,18.9,25.1,63,78.3,68.1c-16.9-12.1-26.6-14.3-43-26.9&#10;&#9;&#9;&#9;&#9;&#9;&#9;&#9;C797.7,289,779.1,258.7,779.1,258.7z"/>
					</g><path d="M 950.200027 280.799988 A 83.300003 83.300003 0 0 1 866.900024 364.099991 A 83.300003 83.300003 0 0 1 783.600021 280.799988 A 83.300003 83.300003 0 0 1 866.900024 197.499985 A 83.300003 83.300003 0 0 1 950.200027 280.799988 Z" fill="#FFDF00" transform="matrix(1, 0, 0, 1, 8.526512829121202e-14, 2.1316282072803006e-14)"/><path d="M 936.700027 280.799988 A 69.800003 69.800003 0 0 1 866.900024 350.599991 A 69.800003 69.800003 0 0 1 797.100021 280.799988 A 69.800003 69.800003 0 0 1 866.900024 210.999985 A 69.800003 69.800003 0 0 1 936.700027 280.799988 Z" fill="#FFC60B" transform="matrix(1, 0, 0, 1, 8.526512829121202e-14, 2.1316282072803006e-14)"/><path fill="#FAA61A" d="M874.3,343.2c-38.6,0-69.8-31.3-69.8-69.8c0-17.4,6.4-33.3,16.9-45.5c-14.9,12.8-24.3,31.8-24.3,53&#10;&#9;&#9;&#9;&#9;c0,38.6,31.3,69.8,69.8,69.8c21.2,0,40.2-9.4,53-24.3C907.6,336.8,891.7,343.2,874.3,343.2z" transform="matrix(1, 0, 0, 1, 8.526512829121202e-14, 2.1316282072803006e-14)"/><path fill="#FCEC82" d="M866.9,217.8c-19.7,0-37.3,9.1-48.9,23.2c10.9-8.8,24.7-14.2,39.8-14.2c34.8,0,63,28.2,63,63&#10;&#9;&#9;&#9;&#9;c0,15.1-5.3,28.9-14.2,39.8c14.2-11.6,23.2-29.2,23.2-48.9C929.9,246,901.7,217.8,866.9,217.8z" transform="matrix(1, 0, 0, 1, 8.526512829121202e-14, 2.1316282072803006e-14)"/><g transform="matrix(1, 0, 0, 1, 8.526512829121202e-14, 2.1316282072803006e-14)">
				<g>
					<g>
						<path fill="#FFC60B" d="M1189.9,123.8c-64.9,27,37.1,54-27.8,81c9.3,0,18.5,0,27.8,0c9.3,0,18.5,0,27.8,0&#10;&#9;&#9;&#9;&#9;&#9;&#9;&#9;C1264,177.8,1143.5,150.8,1189.9,123.8z"/>
						<path fill="#FFDF00" d="M1176.5,149.2c4.8,18.5,38.8,37.1-5.7,55.6c6.4,0,12.7,0,19.1,0c6.4,0,12.7,0,19.1,0&#10;&#9;&#9;&#9;&#9;&#9;&#9;&#9;C1240.8,186.3,1194,167.8,1176.5,149.2z"/>
					</g>
				</g>
				<g>
					<g>
						<path fill="#FFC60B" d="M1302.5,166c-65-26.8-12,64.4-77,37.6c6.6,6.6,13.1,13.1,19.7,19.7c6.6,6.6,13.1,13.1,19.7,19.7&#10;&#9;&#9;&#9;&#9;&#9;&#9;&#9;C1316.7,256.6,1250.6,152.3,1302.5,166z"/>
						<path fill="#FFDF00" d="M1275,174.5c-9.7,16.5,1.3,53.7-43.3,35.3c4.5,4.5,9,9,13.5,13.5c4.5,4.5,9,9,13.5,13.5&#10;&#9;&#9;&#9;&#9;&#9;&#9;&#9;C1294.3,246.2,1274.3,200,1275,174.5z"/>
					</g>
				</g>
				<g>
					<g>
						<path fill="#FFC60B" d="M1352.3,275.4c-27-64.9-54,37.1-81-27.8c0,9.3,0,18.5,0,27.8c0,9.3,0,18.5,0,27.8&#10;&#9;&#9;&#9;&#9;&#9;&#9;&#9;C1298.3,349.6,1325.3,229,1352.3,275.4z"/>
						<path fill="#FFDF00" d="M1326.9,262c-18.5,4.8-37.1,38.8-55.6-5.7c0,6.4,0,12.7,0,19.1c0,6.4,0,12.7,0,19.1&#10;&#9;&#9;&#9;&#9;&#9;&#9;&#9;C1289.8,326.3,1308.3,279.5,1326.9,262z"/>
					</g>
				</g>
				<g>
					<g>
						<path fill="#FFC60B" d="M1310.1,388c26.8-65-64.4-12-37.6-77c-6.6,6.6-13.1,13.1-19.7,19.7c-6.6,6.6-13.1,13.1-19.7,19.7&#10;&#9;&#9;&#9;&#9;&#9;&#9;&#9;C1219.5,402.3,1323.8,336.1,1310.1,388z"/>
						<path fill="#FFDF00" d="M1301.6,360.6c-16.5-9.7-53.7,1.3-35.3-43.3c-4.5,4.5-9,9-13.5,13.5c-4.5,4.5-9,9-13.5,13.5&#10;&#9;&#9;&#9;&#9;&#9;&#9;&#9;C1229.9,379.8,1276.1,359.9,1301.6,360.6z"/>
					</g>
				</g>
				<g>
					<g>
						<path fill="#FFC60B" d="M1200.7,437.8c64.9-27-37.1-54,27.8-81c-9.3,0-18.5,0-27.8,0c-9.3,0-18.5,0-27.8,0&#10;&#9;&#9;&#9;&#9;&#9;&#9;&#9;C1126.5,383.8,1247,410.8,1200.7,437.8z"/>
						<path fill="#FFDF00" d="M1214.1,412.4c-4.8-18.5-38.8-37.1,5.7-55.6c-6.4,0-12.7,0-19.1,0c-6.4,0-12.7,0-19.1,0&#10;&#9;&#9;&#9;&#9;&#9;&#9;&#9;C1149.8,375.4,1196.6,393.9,1214.1,412.4z"/>
					</g>
				</g>
				<g>
					<g>
						<path fill="#FFC60B" d="M1088.1,395.7c65,26.8,12-64.4,77-37.6c-6.6-6.6-13.1-13.1-19.7-19.7c-6.6-6.6-13.1-13.1-19.7-19.7&#10;&#9;&#9;&#9;&#9;&#9;&#9;&#9;C1073.8,305,1139.9,409.4,1088.1,395.7z"/>
						<path fill="#FFDF00" d="M1115.5,387.2c9.7-16.5-1.3-53.7,43.3-35.3c-4.5-4.5-9-9-13.5-13.5c-4.5-4.5-9-9-13.5-13.5&#10;&#9;&#9;&#9;&#9;&#9;&#9;&#9;C1096.2,315.5,1116.2,361.7,1115.5,387.2z"/>
					</g>
				</g>
				<g>
					<g>
						<path fill="#FFC60B" d="M1038.3,286.2c27,64.9,54-37.1,81,27.8c0-9.3,0-18.5,0-27.8c0-9.3,0-18.5,0-27.8&#10;&#9;&#9;&#9;&#9;&#9;&#9;&#9;C1092.3,212,1065.3,332.6,1038.3,286.2z"/>
						<path fill="#FFDF00" d="M1063.7,299.6c18.5-4.8,37.1-38.8,55.6,5.7c0-6.4,0-12.7,0-19.1c0-6.4,0-12.7,0-19.1&#10;&#9;&#9;&#9;&#9;&#9;&#9;&#9;C1100.7,235.3,1082.2,282.1,1063.7,299.6z"/>
					</g>
				</g>
				<g>
					<g>
						<path fill="#FFC60B" d="M1080.4,173.6c-26.8,65,64.4,12,37.6,77c6.6-6.6,13.1-13.1,19.7-19.7c6.6-6.6,13.1-13.1,19.7-19.7&#10;&#9;&#9;&#9;&#9;&#9;&#9;&#9;C1171.1,159.4,1066.7,225.5,1080.4,173.6z"/>
						<path fill="#FFDF00" d="M1088.9,201.1c16.5,9.7,53.7-1.3,35.3,43.3c4.5-4.5,9-9,13.5-13.5c4.5-4.5,9-9,13.5-13.5&#10;&#9;&#9;&#9;&#9;&#9;&#9;&#9;C1160.6,181.8,1114.4,201.8,1088.9,201.1z"/>
					</g>
				</g>
			</g><path d="M 1278.600052 280.799988 A 83.300003 83.300003 0 0 1 1195.300049 364.099991 A 83.300003 83.300003 0 0 1 1112.000046 280.799988 A 83.300003 83.300003 0 0 1 1195.300049 197.499985 A 83.300003 83.300003 0 0 1 1278.600052 280.799988 Z" fill="#FFDF00" transform="matrix(1, 0, 0, 1, 1.1368683772161603e-13, 2.842170943040401e-14)"/><path d="M 1265.100052 280.799988 A 69.800003 69.800003 0 0 1 1195.300049 350.599991 A 69.800003 69.800003 0 0 1 1125.500046 280.799988 A 69.800003 69.800003 0 0 1 1195.300049 210.999985 A 69.800003 69.800003 0 0 1 1265.100052 280.799988 Z" fill="#FFC60B" transform="matrix(1, 0, 0, 1, 1.1368683772161603e-13, 2.842170943040401e-14)"/><path fill="#FCEC82" d="M1256,284.7c-2.1,0-3.9-1.7-3.9-3.9c0-5.4-0.7-10.7-2.2-15.8c-0.6-2,0.6-4.2,2.6-4.8&#10;&#9;&#9;&#9;&#9;&#9;&#9;c2-0.6,4.2,0.6,4.8,2.6c1.7,5.8,2.5,11.8,2.5,17.9C1259.8,283,1258.1,284.7,1256,284.7z" transform="matrix(1, 0, 0, 1, 1.4210854715202004e-13, 3.552713678800501e-14)"/><path fill="#FCEC82" d="M1247.4,253.5c-1.3,0-2.6-0.7-3.3-1.9c-10.4-17.3-28.6-27.6-48.8-27.6c-2.1,0-3.9-1.7-3.9-3.9&#10;&#9;&#9;&#9;&#9;&#9;&#9;c0-2.1,1.7-3.9,3.9-3.9c11.4,0,22.5,3,32.3,8.6c9.5,5.5,17.5,13.4,23.1,22.7c1.1,1.8,0.5,4.2-1.3,5.3&#10;&#9;&#9;&#9;&#9;&#9;&#9;C1248.7,253.3,1248,253.5,1247.4,253.5z" transform="matrix(1, 0, 0, 1, 1.4210854715202004e-13, 3.552713678800501e-14)"/><path fill="#FAA61A" d="M1134.6,277c2.1,0,3.9,1.7,3.9,3.9c0,5.4,0.7,10.7,2.2,15.8c0.6,2-0.6,4.2-2.6,4.8&#10;&#9;&#9;&#9;&#9;&#9;&#9;c-2,0.6-4.2-0.6-4.8-2.6c-1.7-5.8-2.5-11.8-2.5-17.9C1130.7,278.7,1132.4,277,1134.6,277z" transform="matrix(1, 0, 0, 1, 1.4210854715202004e-13, 3.552713678800501e-14)"/><path fill="#FAA61A" d="M1143.2,308.1c1.3,0,2.6,0.7,3.3,1.9c10.4,17.3,28.6,27.6,48.8,27.6c2.1,0,3.9,1.7,3.9,3.9&#10;&#9;&#9;&#9;&#9;&#9;&#9;s-1.7,3.9-3.9,3.9c-11.4,0-22.5-3-32.3-8.6c-9.5-5.5-17.5-13.4-23.1-22.7c-1.1-1.8-0.5-4.2,1.3-5.3&#10;&#9;&#9;&#9;&#9;&#9;&#9;C1141.8,308.3,1142.5,308.1,1143.2,308.1z" transform="matrix(1, 0, 0, 1, 1.4210854715202004e-13, 3.552713678800501e-14)"/><g transform="matrix(1, 0, 0, 1, 8.526512829121202e-14, 2.1316282072803006e-14)">
				<g>
					<path d="M 543 119.80000305175781 L 522.4000244140625 200.8000030517578 L 543 200.8000030517578 L 563.5999755859375 200.8000030517578 Z" fill="#FFC60B"/>
					<path d="M 543 145.1999969482422 L 528.7999877929688 200.8000030517578 L 543 200.8000030517578 L 557.2000122070312 200.8000030517578 Z" fill="#FFDF00"/>
				</g>
				<g>
					<path d="M 656.7999877929688 167 L 585 209.6999969482422 L 599.5999755859375 224.3000030517578 L 614.2000122070312 238.89999389648438 Z" fill="#FFC60B"/>
					<path d="M 638.9000244140625 185 L 589.5 214.1999969482422 L 599.5999755859375 224.3000030517578 L 609.5999755859375 234.3000030517578 Z" fill="#FFDF00"/>
				</g>
				<g>
					<path d="M 704 280.79998779296875 L 623 260.20001220703125 L 623 280.79998779296875 L 623 301.5 Z" fill="#FFC60B"/>
					<path d="M 678.5999755859375 280.79998779296875 L 623 266.70001220703125 L 623 280.79998779296875 L 623 295 Z" fill="#FFDF00"/>
				</g>
				<g>
					<path d="M 656.7999877929688 394.70001220703125 L 614.2000122070312 322.79998779296875 L 599.5999755859375 337.3999938964844 L 585 352 Z" fill="#FFC60B"/>
					<path d="M 638.9000244140625 376.70001220703125 L 609.5999755859375 327.3999938964844 L 599.5999755859375 337.3999938964844 L 589.5 347.3999938964844 Z" fill="#FFDF00"/>
				</g>
				<g>
					<path d="M 543 441.79998779296875 L 563.5999755859375 360.79998779296875 L 543 360.79998779296875 L 522.4000244140625 360.79998779296875 Z" fill="#FFC60B"/>
					<path d="M 543 416.3999938964844 L 557.2000122070312 360.79998779296875 L 543 360.79998779296875 L 528.7999877929688 360.79998779296875 Z" fill="#FFDF00"/>
				</g>
				<g>
					<path d="M 429.20001220703125 394.70001220703125 L 501 352 L 486.3999938964844 337.3999938964844 L 471.79998779296875 322.79998779296875 Z" fill="#FFC60B"/>
					<path d="M 447.1000061035156 376.70001220703125 L 496.5 347.3999938964844 L 486.3999938964844 337.3999938964844 L 476.3999938964844 327.3999938964844 Z" fill="#FFDF00"/>
				</g>
				<g>
					<path d="M 382 280.79998779296875 L 463 301.5 L 463 280.79998779296875 L 463 260.20001220703125 Z" fill="#FFC60B"/>
					<path d="M 407.3999938964844 280.79998779296875 L 463 295 L 463 280.79998779296875 L 463 266.70001220703125 Z" fill="#FFDF00"/>
				</g>
				<g>
					<path d="M 429.20001220703125 167 L 471.79998779296875 238.89999389648438 L 486.3999938964844 224.3000030517578 L 501 209.6999969482422 Z" fill="#FFC60B"/>
					<path d="M 447.1000061035156 185 L 476.3999938964844 234.3000030517578 L 486.3999938964844 224.3000030517578 L 496.5 214.1999969482422 Z" fill="#FFDF00"/>
				</g>
			</g><g transform="matrix(1, 0, 0, 1, 1.1368683772161603e-13, 2.842170943040401e-14)">
					<path d="M 592.7000122070312 160.6999969482422 L 552.2999877929688 214.8000030517578 L 567.7000122070312 221.10000610351562 L 583.0999755859375 227.5 Z" fill="#FFC60B"/>
					<path d="M 584.9000244140625 179.6999969482422 L 557.0999755859375 216.8000030517578 L 567.7000122070312 221.10000610351562 L 578.2999877929688 225.5 Z" fill="#FFDF00"/>
				</g><path d="M 663.0999755859375 231 L 596.2999877929688 240.6999969482422 L 602.7000122070312 256.1000061035156 L 609.0999755859375 271.5 Z" fill="#FFC60B" transform="matrix(1, 0, 0, 1, 1.4210854715202004e-13, 3.552713678800501e-14)"/><path d="M 644.2000122070312 238.89999389648438 L 598.2999877929688 245.5 L 602.7000122070312 256.1000061035156 L 607.0999755859375 266.70001220703125 Z" fill="#FFDF00" transform="matrix(1, 0, 0, 1, 1.4210854715202004e-13, 3.552713678800501e-14)"/><path d="M 663.0999755859375 330.6000061035156 L 609.0999755859375 290.1000061035156 L 602.7000122070312 305.5 L 596.2999877929688 320.8999938964844 Z" fill="#FFC60B" transform="matrix(1, 0, 0, 1, 1.4210854715202004e-13, 3.552713678800501e-14)"/><path d="M 644.2000122070312 322.70001220703125 L 607.0999755859375 295 L 602.7000122070312 305.5 L 598.2999877929688 316.1000061035156 Z" fill="#FFDF00" transform="matrix(1, 0, 0, 1, 1.4210854715202004e-13, 3.552713678800501e-14)"/><path d="M 592.7999877929688 400.8999938964844 L 583.0999755859375 334.1000061035156 L 567.7000122070312 340.5 L 552.2999877929688 346.8999938964844 Z" fill="#FFC60B" transform="matrix(1, 0, 0, 1, 1.4210854715202004e-13, 3.552713678800501e-14)"/><path d="M 584.9000244140625 382 L 578.2999877929688 336.1000061035156 L 567.7000122070312 340.5 L 557.2000122070312 344.8999938964844 Z" fill="#FFDF00" transform="matrix(1, 0, 0, 1, 1.4210854715202004e-13, 3.552713678800501e-14)"/><path d="M 493.29998779296875 401 L 533.7000122070312 346.8999938964844 L 518.2999877929688 340.5 L 502.8999938964844 334.1000061035156 Z" fill="#FFC60B" transform="matrix(1, 0, 0, 1, 1.4210854715202004e-13, 3.552713678800501e-14)"/><path d="M 501.1000061035156 382 L 528.9000244140625 344.8999938964844 L 518.2999877929688 340.5 L 507.70001220703125 336.1000061035156 Z" fill="#FFDF00" transform="matrix(1, 0, 0, 1, 1.4210854715202004e-13, 3.552713678800501e-14)"/><path d="M 422.8999938964844 330.6000061035156 L 489.70001220703125 321 L 483.29998779296875 305.6000061035156 L 476.8999938964844 290.20001220703125 Z" fill="#FFC60B" transform="matrix(1, 0, 0, 1, 1.4210854715202004e-13, 3.552713678800501e-14)"/><path d="M 441.79998779296875 322.70001220703125 L 487.70001220703125 316.1000061035156 L 483.29998779296875 305.6000061035156 L 478.8999938964844 295 Z" fill="#FFDF00" transform="matrix(1, 0, 0, 1, 1.4210854715202004e-13, 3.552713678800501e-14)"/><path d="M 422.8999938964844 231.10000610351562 L 476.8999938964844 271.5 L 483.29998779296875 256.1000061035156 L 489.70001220703125 240.6999969482422 Z" fill="#FFC60B" transform="matrix(1, 0, 0, 1, 1.4210854715202004e-13, 3.552713678800501e-14)"/><path d="M 441.79998779296875 238.89999389648438 L 478.8999938964844 266.70001220703125 L 483.29998779296875 256.1000061035156 L 487.70001220703125 245.5 Z" fill="#FFDF00" transform="matrix(1, 0, 0, 1, 1.4210854715202004e-13, 3.552713678800501e-14)"/><path d="M 493.20001220703125 160.6999969482422 L 502.8999938964844 227.5 L 518.2999877929688 221.10000610351562 L 533.7000122070312 214.8000030517578 Z" fill="#FFC60B" transform="matrix(1, 0, 0, 1, 1.4210854715202004e-13, 3.552713678800501e-14)"/><path d="M 501.1000061035156 179.6999969482422 L 507.70001220703125 225.5 L 518.2999877929688 221.10000610351562 L 528.7999877929688 216.8000030517578 Z" fill="#FFDF00" transform="matrix(1, 0, 0, 1, 1.4210854715202004e-13, 3.552713678800501e-14)"/><path d="M 626.300003 280.799988 A 83.300003 83.300003 0 0 1 543 364.099991 A 83.300003 83.300003 0 0 1 459.699997 280.799988 A 83.300003 83.300003 0 0 1 543 197.499985 A 83.300003 83.300003 0 0 1 626.300003 280.799988 Z" fill="#FFDF00" transform="matrix(1, 0, 0, 1, 8.526512829121202e-14, 2.1316282072803006e-14)"/><path d="M 612.800003 280.799988 A 69.800003 69.800003 0 0 1 543 350.599991 A 69.800003 69.800003 0 0 1 473.199997 280.799988 A 69.800003 69.800003 0 0 1 543 210.999985 A 69.800003 69.800003 0 0 1 612.800003 280.799988 Z" fill="#FFC60B" transform="matrix(1, 0, 0, 1, 8.526512829121202e-14, 2.1316282072803006e-14)"/><path fill="#FAA61A" d="M543,335.5c-36,0-65.6-27.3-69.4-62.3c-0.3,2.5-0.4,5-0.4,7.6c0,38.6,31.3,69.8,69.8,69.8&#10;&#9;&#9;&#9;&#9;s69.8-31.3,69.8-69.8c0-2.6-0.1-5.1-0.4-7.6C608.7,308.3,579,335.5,543,335.5z" transform="matrix(1, 0, 0, 1, 8.526512829121202e-14, 2.1316282072803006e-14)"/><path fill="#FCEC82" d="M585,244.8c0,13.4-18.8,7.6-42,7.6s-42,5.8-42-7.6c0-13.4,18.8-24.2,42-24.2S585,231.4,585,244.8z" transform="matrix(1, 0, 0, 1, 8.526512829121202e-14, 2.1316282072803006e-14)"/><g transform="matrix(1, 0, 0, 1, 8.526512829121202e-14, 2.1316282072803006e-14)">
				<g>
					<path fill="#FFDF00" d="M650.6,659.6l-51.2-1.9c4.6,5.5,8.4,11.7,11.3,18.6c2.9,6.9,4.7,14,5.4,21.1L650.6,659.6z"/>
					<g>
						<path fill="#FFC60B" d="M650.6,659.6l-39.9,16.7c-2.9-6.9-6.8-13.2-11.3-18.6L650.6,659.6z"/>
					</g>
				</g>
				<g>
					<path fill="#FFDF00" d="M651,748.9l-34.8-37.5c-0.6,7.1-2.3,14.2-5.2,21.2c-2.8,7-6.6,13.2-11.1,18.8L651,748.9z"/>
					<g>
						<path fill="#FFC60B" d="M651,748.9l-40-16.4c2.8-7,4.5-14.1,5.2-21.2L651,748.9z"/>
					</g>
				</g>
				<g>
					<path fill="#FFDF00" d="M588.2,812.4l1.9-51.2c-5.5,4.6-11.7,8.4-18.6,11.3c-6.9,2.9-14,4.7-21.1,5.4L588.2,812.4z"/>
					<g>
						<path fill="#FFC60B" d="M588.2,812.4l-16.7-39.9c6.9-2.9,13.2-6.8,18.6-11.3L588.2,812.4z"/>
					</g>
				</g>
				<g>
					<path fill="#FFDF00" d="M498.9,812.8l37.5-34.8c-7.1-0.6-14.2-2.3-21.2-5.2c-7-2.8-13.2-6.6-18.8-11.1L498.9,812.8z"/>
					<g>
						<path fill="#FFC60B" d="M498.9,812.8l16.4-40c7,2.8,14.1,4.5,21.2,5.2L498.9,812.8z"/>
					</g>
				</g>
				<g>
					<path fill="#FFDF00" d="M435.4,749.9l51.2,1.9c-4.6-5.5-8.4-11.7-11.3-18.6c-2.9-6.9-4.7-14-5.4-21.1L435.4,749.9z"/>
					<g>
						<path fill="#FFC60B" d="M435.4,749.9l39.9-16.7c2.9,6.9,6.8,13.2,11.3,18.6L435.4,749.9z"/>
					</g>
				</g>
				<g>
					<path fill="#FFDF00" d="M435,660.6l34.8,37.5c0.6-7.1,2.3-14.2,5.2-21.2s6.6-13.2,11.1-18.8L435,660.6z"/>
					<g>
						<path fill="#FFC60B" d="M435,660.6l40,16.4c-2.8,7-4.5,14.1-5.2,21.2L435,660.6z"/>
					</g>
				</g>
				<g>
					<path fill="#FFDF00" d="M497.8,597.2l-1.9,51.2c5.5-4.6,11.7-8.4,18.6-11.3c6.9-2.9,14-4.7,21.1-5.4L497.8,597.2z"/>
					<g>
						<path fill="#FFC60B" d="M497.8,597.2l16.7,39.9c-6.9,2.9-13.2,6.8-18.6,11.3L497.8,597.2z"/>
					</g>
				</g>
				<g>
					<path fill="#FFDF00" d="M587.1,596.7l-37.5,34.8c7.1,0.6,14.2,2.3,21.2,5.2c7,2.8,13.2,6.6,18.8,11.1L587.1,596.7z"/>
					<g>
						<path fill="#FFC60B" d="M587.1,596.7l-16.4,40c-7-2.8-14.1-4.5-21.2-5.2L587.1,596.7z"/>
					</g>
				</g>
			</g><path d="M 626.300003 704.799988 A 83.300003 83.300003 0 0 1 543 788.099991 A 83.300003 83.300003 0 0 1 459.699997 704.799988 A 83.300003 83.300003 0 0 1 543 621.499985 A 83.300003 83.300003 0 0 1 626.300003 704.799988 Z" fill="#FFDF00" transform="matrix(1, 0, 0, 1, 8.526512829121202e-14, 2.1316282072803006e-14)"/><path d="M 612.800003 704.799988 A 69.800003 69.800003 0 0 1 543 774.599991 A 69.800003 69.800003 0 0 1 473.199997 704.799988 A 69.800003 69.800003 0 0 1 543 634.999985 A 69.800003 69.800003 0 0 1 612.800003 704.799988 Z" fill="#FFC60B" transform="matrix(1, 0, 0, 1, 8.526512829121202e-14, 2.1316282072803006e-14)"/><path fill="#FAA61A" d="M503.6,744.1c-25.6-25.6-27.2-66.1-4.7-93.5c-1.8,1.5-3.6,3.1-5.2,4.7c-27.3,27.3-27.3,71.5,0,98.8&#10;&#9;&#9;&#9;&#9;c27.3,27.3,71.5,27.3,98.8,0c1.7-1.7,3.3-3.4,4.7-5.2C569.7,771.3,529.2,769.7,503.6,744.1z" transform="matrix(1, 0, 0, 1, 8.526512829121202e-14, 2.1316282072803006e-14)"/><g transform="matrix(1, 0, 0, 1, 1.1368683772161603e-13, 2.842170943040401e-14)">
					<path fill="#FFDF00" d="M634.2,613.6L581,633c7,3.7,13.5,8.5,19.4,14.3c5.9,5.9,10.6,12.4,14.3,19.4L634.2,613.6z"/>
					<g>
						<path fill="#FFC60B" d="M634.2,613.6l-33.8,33.8c-5.9-5.9-12.4-10.6-19.4-14.3L634.2,613.6z"/>
					</g>
				</g><path fill="#FFDF00" d="M671.9,704.8l-51.3-23.8c2.3,7.5,3.6,15.5,3.6,23.8c0,8.3-1.2,16.3-3.6,23.8L671.9,704.8z" transform="matrix(1, 0, 0, 1, 1.4210854715202004e-13, 3.552713678800501e-14)"/><path fill="#FFC60B" d="M671.9,704.8h-47.8c0-8.3-1.2-16.3-3.6-23.8L671.9,704.8z" transform="matrix(1, 0, 0, 1, 1.7053025658242404e-13, 4.263256414560601e-14)"/><path fill="#FFDF00" d="M634.2,795.9l-19.4-53.1c-3.7,7-8.5,13.5-14.3,19.4c-5.9,5.9-12.4,10.6-19.4,14.3L634.2,795.9z" transform="matrix(1, 0, 0, 1, 1.4210854715202004e-13, 3.552713678800501e-14)"/><path fill="#FFC60B" d="M634.2,795.9l-33.8-33.8c5.9-5.9,10.6-12.4,14.3-19.4L634.2,795.9z" transform="matrix(1, 0, 0, 1, 1.7053025658242404e-13, 4.263256414560601e-14)"/><path fill="#FFDF00" d="M543,833.7l23.8-51.3c-7.5,2.3-15.5,3.6-23.8,3.6c-8.3,0-16.3-1.2-23.8-3.6L543,833.7z" transform="matrix(1, 0, 0, 1, 1.4210854715202004e-13, 3.552713678800501e-14)"/><path fill="#FFC60B" d="M543,833.7v-47.8c8.3,0,16.3-1.2,23.8-3.6L543,833.7z" transform="matrix(1, 0, 0, 1, 1.7053025658242404e-13, 4.263256414560601e-14)"/><path fill="#FFDF00" d="M451.8,795.9l53.1-19.4c-7-3.7-13.5-8.5-19.4-14.3c-5.9-5.9-10.6-12.4-14.3-19.4L451.8,795.9z" transform="matrix(1, 0, 0, 1, 1.4210854715202004e-13, 3.552713678800501e-14)"/><path fill="#FFC60B" d="M451.8,795.9l33.8-33.8c5.9,5.9,12.4,10.6,19.4,14.3L451.8,795.9z" transform="matrix(1, 0, 0, 1, 1.7053025658242404e-13, 4.263256414560601e-14)"/><path fill="#FFDF00" d="M414.1,704.8l51.3,23.8c-2.3-7.5-3.6-15.5-3.6-23.8s1.2-16.3,3.6-23.8L414.1,704.8z" transform="matrix(1, 0, 0, 1, 1.4210854715202004e-13, 3.552713678800501e-14)"/><path fill="#FFC60B" d="M414.1,704.8h47.8c0,8.3,1.2,16.3,3.6,23.8L414.1,704.8z" transform="matrix(1, 0, 0, 1, 1.7053025658242404e-13, 4.263256414560601e-14)"/><path fill="#FFDF00" d="M451.8,613.6l19.4,53.1c3.7-7,8.5-13.5,14.3-19.4c5.9-5.9,12.4-10.6,19.4-14.3L451.8,613.6z" transform="matrix(1, 0, 0, 1, 1.4210854715202004e-13, 3.552713678800501e-14)"/><path fill="#FFC60B" d="M451.8,613.6l33.8,33.8c-5.9,5.9-10.6,12.4-14.3,19.4L451.8,613.6z" transform="matrix(1, 0, 0, 1, 1.7053025658242404e-13, 4.263256414560601e-14)"/><path fill="#FFDF00" d="M543,575.8l-23.8,51.3c7.5-2.3,15.5-3.6,23.8-3.6c8.3,0,16.3,1.2,23.8,3.6L543,575.8z" transform="matrix(1, 0, 0, 1, 1.4210854715202004e-13, 3.552713678800501e-14)"/><path fill="#FFC60B" d="M543,575.8v47.8c-8.3,0-16.3,1.2-23.8,3.6L543,575.8z" transform="matrix(1, 0, 0, 1, 1.7053025658242404e-13, 4.263256414560601e-14)"/><g transform="matrix(1, 0, 0, 1, 8.526512829121202e-14, 2.1316282072803006e-14)">
				<g>
					<g>
						<path fill="#FFDF00" d="M813.6,697.9c-34,14-68.1,20.9-102.1,6.9c34,28.4,68.1,35.9,102.1,36.2&#10;&#9;&#9;&#9;&#9;&#9;&#9;&#9;C813.6,726.6,813.6,712.2,813.6,697.9z"/>
						<g>
							<path fill="#FFC60B" d="M813.6,719.4c-34,6.9-68.1,6.6-102.1-14.7c34,28.4,68.1,35.9,102.1,36.2&#10;&#9;&#9;&#9;&#9;&#9;&#9;&#9;&#9;C813.6,733.8,813.6,726.6,813.6,719.4z"/>
						</g>
					</g>
					<g>
						<path fill="#FFDF00" d="M920.2,668.6c34,0.3,68.1,7.8,102.1,36.2c-34-14-68.1-7.2-102.1,6.9&#10;&#9;&#9;&#9;&#9;&#9;&#9;&#9;C920.2,697.3,920.2,682.9,920.2,668.6z"/>
						<g>
							<path fill="#FFC60B" d="M920.2,690.1c34-6.9,68.1-6.6,102.1,14.7c-34-14-68.1-7.2-102.1,6.9&#10;&#9;&#9;&#9;&#9;&#9;&#9;&#9;&#9;C920.2,704.5,920.2,697.3,920.2,690.1z"/>
						</g>
					</g>
				</g>
				<g>
					<g>
						<path fill="#FFDF00" d="M834,662.2c-34-14.1-62.9-33.3-77.1-67.3c4,44.1,22.8,73.5,46.6,97.8&#10;&#9;&#9;&#9;&#9;&#9;&#9;&#9;C813.7,682.5,823.9,672.4,834,662.2z"/>
						<g>
							<path fill="#FFC60B" d="M818.8,677.4c-28.9-19.2-52.8-43.5-61.8-82.6c4,44.1,22.8,73.5,46.6,97.8&#10;&#9;&#9;&#9;&#9;&#9;&#9;&#9;&#9;C808.6,687.6,813.7,682.5,818.8,677.4z"/>
						</g>
					</g>
					<g>
						<path fill="#FFDF00" d="M930.2,716.9c23.8,24.3,42.6,53.6,46.6,97.8c-14.1-34-43.1-53.2-77.1-67.3&#10;&#9;&#9;&#9;&#9;&#9;&#9;&#9;C909.8,737.2,920,727,930.2,716.9z"/>
						<g>
							<path fill="#FFC60B" d="M914.9,732.1c28.9,19.2,52.8,43.5,61.8,82.6c-14.1-34-43.1-53.2-77.1-67.3&#10;&#9;&#9;&#9;&#9;&#9;&#9;&#9;&#9;C904.8,742.2,909.8,737.2,914.9,732.1z"/>
						</g>
					</g>
				</g>
				<g>
					<g>
						<path fill="#FFDF00" d="M873.7,651.5c-14-34-20.9-68.1-6.9-102.1c-28.4,34-35.9,68.1-36.2,102.1&#10;&#9;&#9;&#9;&#9;&#9;&#9;&#9;C845,651.5,859.4,651.5,873.7,651.5z"/>
						<g>
							<path fill="#FFC60B" d="M852.2,651.5c-6.9-34-6.6-68.1,14.7-102.1c-28.4,34-35.9,68.1-36.2,102.1&#10;&#9;&#9;&#9;&#9;&#9;&#9;&#9;&#9;C837.8,651.5,845,651.5,852.2,651.5z"/>
						</g>
					</g>
					<g>
						<path fill="#FFDF00" d="M903.1,758.1c-0.3,34-7.8,68.1-36.2,102.1c14-34,7.2-68.1-6.9-102.1&#10;&#9;&#9;&#9;&#9;&#9;&#9;&#9;C874.3,758.1,888.7,758.1,903.1,758.1z"/>
						<g>
							<path fill="#FFC60B" d="M881.5,758.1c6.9,34,6.6,68.1-14.7,102.1c14-34,7.2-68.1-6.9-102.1&#10;&#9;&#9;&#9;&#9;&#9;&#9;&#9;&#9;C867.2,758.1,874.3,758.1,881.5,758.1z"/>
						</g>
					</g>
				</g>
				<g>
					<g>
						<path fill="#FFDF00" d="M909.4,671.9c14.1-34,33.3-62.9,67.3-77.1c-44.1,4-73.5,22.8-97.8,46.6&#10;&#9;&#9;&#9;&#9;&#9;&#9;&#9;C889.1,651.6,899.3,661.8,909.4,671.9z"/>
						<g>
							<path fill="#FFC60B" d="M894.2,656.7c19.2-28.9,43.5-52.8,82.6-61.8c-44.1,4-73.5,22.8-97.8,46.6&#10;&#9;&#9;&#9;&#9;&#9;&#9;&#9;&#9;C884,646.5,889.1,651.6,894.2,656.7z"/>
						</g>
					</g>
					<g>
						<path fill="#FFDF00" d="M854.8,768c-24.3,23.8-53.6,42.6-97.8,46.6c34-14.1,53.2-43.1,67.3-77.1&#10;&#9;&#9;&#9;&#9;&#9;&#9;&#9;C834.5,747.7,844.6,757.9,854.8,768z"/>
						<g>
							<path fill="#FFC60B" d="M839.5,752.8c-19.2,28.9-43.5,52.8-82.6,61.8c34-14.1,53.2-43.1,67.3-77.1&#10;&#9;&#9;&#9;&#9;&#9;&#9;&#9;&#9;C829.4,742.7,834.5,747.7,839.5,752.8z"/>
						</g>
					</g>
				</g>
			</g><g transform="matrix(1, 0, 0, 1, 1.1368683772161603e-13, 2.842170943040401e-14)">
					<g>
						<path fill="#FFDF00" d="M825.1,682.6c-32.3,1-62.5-3.8-86.1-25.9c19.2,33.9,44.9,50.6,72.8,61.3&#10;&#9;&#9;&#9;&#9;&#9;&#9;&#9;C816.3,706.3,820.7,694.5,825.1,682.6z"/>
						<g>
							<path fill="#FFC60B" d="M818.5,700.4c-30.1-4.9-58-15.6-79.5-43.6c19.2,33.9,44.9,50.6,72.8,61.3&#10;&#9;&#9;&#9;&#9;&#9;&#9;&#9;&#9;C814,712.2,816.3,706.3,818.5,700.4z"/>
						</g>
					</g>
					<g>
						<path fill="#FFDF00" d="M921.9,691.4c27.9,10.8,53.6,27.4,72.8,61.3c-23.7-22.1-53.8-26.9-86.1-25.9&#10;&#9;&#9;&#9;&#9;&#9;&#9;&#9;C913,715.1,917.5,703.3,921.9,691.4z"/>
						<g>
							<path fill="#FFC60B" d="M915.3,709.2c30.1,4.9,58,15.6,79.5,43.6c-23.7-22.1-53.8-26.9-86.1-25.9&#10;&#9;&#9;&#9;&#9;&#9;&#9;&#9;&#9;C910.8,721,913,715.1,915.3,709.2z"/>
						</g>
					</g>
				</g><g transform="matrix(1, 0, 0, 1, 1.4210854715202004e-13, 3.552713678800501e-14)">
						<path fill="#FFDF00" d="M853,659.6c-23.6-22.1-41.5-46.9-42.6-79.2c-10.4,37.6-4,67.5,8.1,94.9C830,670,841.5,664.8,853,659.6&#10;&#9;&#9;&#9;&#9;&#9;&#9;&#9;z"/>
						<g>
							<path fill="#FFC60B" d="M835.8,667.4c-17.9-24.7-30-52.1-25.4-87c-10.4,37.6-4,67.5,8.1,94.9&#10;&#9;&#9;&#9;&#9;&#9;&#9;&#9;&#9;C824.3,672.6,830,670,835.8,667.4z"/>
						</g>
					</g><path fill="#FFDF00" d="M915.2,734.3c12.1,27.4,18.5,57.3,8.1,94.9c-1.1-32.3-19-57.1-42.6-79.2&#10;&#9;&#9;&#9;&#9;&#9;&#9;&#9;C892.2,744.7,903.7,739.5,915.2,734.3z" transform="matrix(1, 0, 0, 1, 1.7053025658242404e-13, 4.263256414560601e-14)"/><path fill="#FFC60B" d="M898,742.1c17.9,24.7,30,52.1,25.4,87c-1.1-32.3-19-57.1-42.6-79.2&#10;&#9;&#9;&#9;&#9;&#9;&#9;&#9;&#9;C886.5,747.3,892.2,744.7,898,742.1z" transform="matrix(1, 0, 0, 1, 1.9895196601282805e-13, 4.973799150320701e-14)"/><g transform="matrix(1, 0, 0, 1, 1.4210854715202004e-13, 3.552713678800501e-14)">
						<path fill="#FFDF00" d="M889,663c-1-32.3,3.8-62.5,25.9-86.1c-33.9,19.2-50.6,44.9-61.3,72.8C865.4,654.1,877.2,658.6,889,663&#10;&#9;&#9;&#9;&#9;&#9;&#9;&#9;z"/>
						<g>
							<path fill="#FFC60B" d="M871.3,656.4c4.9-30.1,15.6-58,43.6-79.5c-33.9,19.2-50.6,44.9-61.3,72.8&#10;&#9;&#9;&#9;&#9;&#9;&#9;&#9;&#9;C859.4,651.9,865.4,654.1,871.3,656.4z"/>
						</g>
					</g><path fill="#FFDF00" d="M880.2,759.8c-10.8,27.9-27.4,53.6-61.3,72.8c22.1-23.7,26.9-53.8,25.9-86.1&#10;&#9;&#9;&#9;&#9;&#9;&#9;&#9;C856.6,750.9,868.4,755.4,880.2,759.8z" transform="matrix(1, 0, 0, 1, 1.7053025658242404e-13, 4.263256414560601e-14)"/><path fill="#FFC60B" d="M862.5,753.2c-4.9,30.1-15.6,58-43.6,79.5c22.1-23.7,26.9-53.8,25.9-86.1&#10;&#9;&#9;&#9;&#9;&#9;&#9;&#9;&#9;C850.6,748.7,856.6,750.9,862.5,753.2z" transform="matrix(1, 0, 0, 1, 1.9895196601282805e-13, 4.973799150320701e-14)"/><g transform="matrix(1, 0, 0, 1, 1.4210854715202004e-13, 3.552713678800501e-14)">
						<path fill="#FFDF00" d="M912,690.9c22.1-23.6,46.9-41.5,79.2-42.6c-37.6-10.4-67.5-4-94.9,8.1&#10;&#9;&#9;&#9;&#9;&#9;&#9;&#9;C901.6,667.9,906.8,679.4,912,690.9z"/>
						<g>
							<path fill="#FFC60B" d="M904.2,673.6c24.7-17.9,52.1-30,87-25.4c-37.6-10.4-67.5-4-94.9,8.1&#10;&#9;&#9;&#9;&#9;&#9;&#9;&#9;&#9;C899,662.2,901.6,667.9,904.2,673.6z"/>
						</g>
					</g><path fill="#FFDF00" d="M837.4,753.1c-27.4,12.1-57.3,18.5-94.9,8.1c32.3-1.1,57.1-19,79.2-42.6&#10;&#9;&#9;&#9;&#9;&#9;&#9;&#9;C826.9,730.1,832.1,741.6,837.4,753.1z" transform="matrix(1, 0, 0, 1, 1.7053025658242404e-13, 4.263256414560601e-14)"/><path fill="#FFC60B" d="M829.5,735.9c-24.7,17.9-52.1,30-87,25.4c32.3-1.1,57.1-19,79.2-42.6&#10;&#9;&#9;&#9;&#9;&#9;&#9;&#9;&#9;C824.3,724.4,826.9,730.1,829.5,735.9z" transform="matrix(1, 0, 0, 1, 1.9895196601282805e-13, 4.973799150320701e-14)"/><path d="M 950.200027 704.799988 A 83.300003 83.300003 0 0 1 866.900024 788.099991 A 83.300003 83.300003 0 0 1 783.600021 704.799988 A 83.300003 83.300003 0 0 1 866.900024 621.499985 A 83.300003 83.300003 0 0 1 950.200027 704.799988 Z" fill="#FFDF00" transform="matrix(1, 0, 0, 1, 1.1368683772161603e-13, 2.842170943040401e-14)"/><path d="M 936.700027 704.799988 A 69.800003 69.800003 0 0 1 866.900024 774.599991 A 69.800003 69.800003 0 0 1 797.100021 704.799988 A 69.800003 69.800003 0 0 1 866.900024 634.999985 A 69.800003 69.800003 0 0 1 936.700027 704.799988 Z" fill="#FFC60B" transform="matrix(1, 0, 0, 1, 1.1368683772161603e-13, 2.842170943040401e-14)"/><path fill="#FAA61A" d="M830.1,741.5c-25.1-25.1-27.1-64.7-5.9-92.1c-2.3,1.8-4.6,3.8-6.7,5.9c-27.3,27.3-27.3,71.5,0,98.8&#10;&#9;&#9;&#9;&#9;&#9;c27.3,27.3,71.5,27.3,98.8,0c2.1-2.1,4.1-4.4,5.9-6.7C894.8,768.6,855.2,766.7,830.1,741.5z" transform="matrix(1, 0, 0, 1, 1.1368683772161603e-13, 2.842170943040401e-14)"/><path d="M 905.200012 660.099976 A 15 15 0 0 1 890.200012 675.099976 A 15 15 0 0 1 875.200012 660.099976 A 15 15 0 0 1 890.200012 645.099976 A 15 15 0 0 1 905.200012 660.099976 Z" fill="#FCEC82" transform="matrix(1, 0, 0, 1, 8.526512829121202e-14, 2.1316282072803006e-14)"/><path d="M 924.699987 675.799988 A 9.9 9.9 0 0 1 914.799988 685.699987 A 9.9 9.9 0 0 1 904.899988 675.799988 A 9.9 9.9 0 0 1 914.799988 665.899988 A 9.9 9.9 0 0 1 924.699987 675.799988 Z" fill="#FCEC82" transform="matrix(1, 0, 0, 1, 8.526512829121202e-14, 2.1316282072803006e-14)"/><path d="M 932.400024 698.299988 A 7 7 0 0 1 925.400024 705.299988 A 7 7 0 0 1 918.400024 698.299988 A 7 7 0 0 1 925.400024 691.299988 A 7 7 0 0 1 932.400024 698.299988 Z" fill="#FCEC82" transform="matrix(1, 0, 0, 1, 8.526512829121202e-14, 2.1316282072803006e-14)"/><g transform="matrix(1, 0, 0, 1, 8.526512829121202e-14, 2.1316282072803006e-14)">
				<g>
					<path fill="#FFC60B" d="M1135.5,846.5c8-12.1,13.1-25.5,26.8-35.2c11.8-10.5,32.1-17.4,26.6-35.3c-6.7-2.8-13.4-5.7-20.1-8.5&#10;&#9;&#9;&#9;&#9;&#9;&#9;c-6.7-2.8-13.4-5.7-20.1-8.5c-16.6,8.5-7.3,27.9-6.7,43.7C1144.6,819.4,1138.6,832.3,1135.5,846.5z"/>
					<path fill="#FFDF00" d="M1145.9,821.8c5.1-8.5,12.2-16.1,20.6-23.2c7.9-7.3,17-14.1,16.1-25.1c-4.6-1.9-9.2-3.9-13.8-5.8&#10;&#9;&#9;&#9;&#9;&#9;&#9;c-4.6-1.9-9.2-3.9-13.8-5.8c-8.5,7-7.1,18.3-6.8,29C1148.9,801.8,1148.5,812.2,1145.9,821.8z"/>
				</g>
				<g>
					<path fill="#FFC60B" d="M1052.8,762.8c14.2-2.9,27.3-8.7,43.8-5.9c15.8,0.9,35,10.4,43.7-6.1c-2.7-6.7-5.5-13.5-8.2-20.2&#10;&#9;&#9;&#9;&#9;&#9;&#9;c-2.7-6.7-5.5-13.5-8.2-20.2c-17.7-5.7-24.9,14.5-35.6,26.2C1078.4,750,1065,754.9,1052.8,762.8z"/>
					<path fill="#FFDF00" d="M1077.7,752.6c9.6-2.4,20-2.7,31-1.9c10.7,0.4,22,2,29.1-6.4c-1.9-4.6-3.8-9.3-5.6-13.9&#10;&#9;&#9;&#9;&#9;&#9;&#9;c-1.9-4.6-3.8-9.3-5.6-13.9c-11-1-17.9,7.9-25.3,15.8C1093.9,740.6,1086.2,747.7,1077.7,752.6z"/>
				</g>
				<g>
					<path fill="#FFC60B" d="M1053.5,645c12.1,8,25.5,13.1,35.2,26.8c10.5,11.8,17.4,32.1,35.3,26.6c2.8-6.7,5.7-13.4,8.5-20.1&#10;&#9;&#9;&#9;&#9;&#9;&#9;c2.8-6.7,5.7-13.4,8.5-20.1c-8.5-16.6-27.9-7.3-43.7-6.7C1080.7,654.1,1067.7,648.1,1053.5,645z"/>
					<path fill="#FFDF00" d="M1078.3,655.4c8.5,5.1,16.1,12.2,23.2,20.6c7.3,7.9,14.1,17,25.1,16.1c1.9-4.6,3.9-9.2,5.8-13.8&#10;&#9;&#9;&#9;&#9;&#9;&#9;c1.9-4.6,3.9-9.2,5.8-13.8c-7-8.5-18.3-7.1-29-6.8C1098.3,658.4,1087.8,658,1078.3,655.4z"/>
				</g>
				<g>
					<path fill="#FFC60B" d="M1137.3,562.3c2.9,14.2,8.7,27.3,5.9,43.8c-0.9,15.8-10.4,35,6.1,43.7c6.7-2.7,13.5-5.5,20.2-8.2&#10;&#9;&#9;&#9;&#9;&#9;&#9;c6.7-2.7,13.5-5.5,20.2-8.2c5.7-17.7-14.5-24.9-26.2-35.6C1150.1,587.9,1145.1,574.5,1137.3,562.3z"/>
					<path fill="#FFDF00" d="M1147.4,587.2c2.4,9.6,2.7,20,1.9,31c-0.4,10.7-2,22,6.4,29.1c4.6-1.9,9.3-3.8,13.9-5.6&#10;&#9;&#9;&#9;&#9;&#9;&#9;c4.6-1.9,9.3-3.8,13.9-5.6c1-11-7.9-17.9-15.8-25.3C1159.4,603.4,1152.4,595.7,1147.4,587.2z"/>
				</g>
				<g>
					<path fill="#FFC60B" d="M1255,563c-8,12.1-13.1,25.5-26.8,35.2c-11.8,10.5-32.1,17.4-26.6,35.3c6.7,2.8,13.4,5.7,20.1,8.5&#10;&#9;&#9;&#9;&#9;&#9;&#9;c6.7,2.8,13.4,5.7,20.1,8.5c16.6-8.5,7.3-27.9,6.7-43.7C1245.9,590.1,1252,577.2,1255,563z"/>
					<path fill="#FFDF00" d="M1244.6,587.7c-5.1,8.5-12.2,16.1-20.6,23.2c-7.9,7.3-17,14.1-16.1,25.1c4.6,1.9,9.2,3.9,13.8,5.8&#10;&#9;&#9;&#9;&#9;&#9;&#9;c4.6,1.9,9.2,3.9,13.8,5.8c8.5-7,7.1-18.3,6.8-29C1241.6,607.8,1242,597.3,1244.6,587.7z"/>
				</g>
				<g>
					<path fill="#FFC60B" d="M1337.8,646.8c-14.2,2.9-27.3,8.7-43.8,5.9c-15.8-0.9-35-10.4-43.7,6.1c2.7,6.7,5.5,13.5,8.2,20.2&#10;&#9;&#9;&#9;&#9;&#9;&#9;c2.7,6.7,5.5,13.5,8.2,20.2c17.7,5.7,24.9-14.5,35.6-26.2C1312.1,659.5,1325.5,654.6,1337.8,646.8z"/>
					<path fill="#FFDF00" d="M1312.9,656.9c-9.6,2.4-20,2.7-31,1.9c-10.7-0.4-22-2-29.1,6.4c1.9,4.6,3.8,9.3,5.6,13.9&#10;&#9;&#9;&#9;&#9;&#9;&#9;c1.9,4.6,3.8,9.3,5.6,13.9c11,1,17.9-7.9,25.3-15.8C1296.6,668.9,1304.3,661.9,1312.9,656.9z"/>
				</g>
				<g>
					<path fill="#FFC60B" d="M1337,764.5c-12.1-8-25.5-13.1-35.2-26.8c-10.5-11.8-17.4-32.1-35.3-26.6c-2.8,6.7-5.7,13.4-8.5,20.1&#10;&#9;&#9;&#9;&#9;&#9;&#9;c-2.8,6.7-5.7,13.4-8.5,20.1c8.5,16.6,27.9,7.3,43.7,6.7C1309.9,755.4,1322.8,761.4,1337,764.5z"/>
					<path fill="#FFDF00" d="M1312.3,754.1c-8.5-5.1-16.1-12.2-23.2-20.6c-7.3-7.9-14.1-17-25.1-16.1c-1.9,4.6-3.9,9.2-5.8,13.8&#10;&#9;&#9;&#9;&#9;&#9;&#9;c-1.9,4.6-3.9,9.2-5.8,13.8c7,8.5,18.3,7.1,29,6.8C1292.3,751.1,1302.7,751.5,1312.3,754.1z"/>
				</g>
				<g>
					<path fill="#FFC60B" d="M1253.3,847.2c-2.9-14.2-8.7-27.3-5.9-43.8c0.9-15.8,10.4-35-6.1-43.7c-6.7,2.7-13.5,5.5-20.2,8.2&#10;&#9;&#9;&#9;&#9;&#9;&#9;c-6.7,2.7-13.5,5.5-20.2,8.2c-5.7,17.7,14.5,24.9,26.2,35.6C1240.5,821.6,1245.4,835,1253.3,847.2z"/>
					<path fill="#FFDF00" d="M1243.1,822.4c-2.4-9.6-2.7-20-1.9-31c0.4-10.7,2-22-6.4-29.1c-4.6,1.9-9.3,3.8-13.9,5.6&#10;&#9;&#9;&#9;&#9;&#9;&#9;c-4.6,1.9-9.3,3.8-13.9,5.6c-1,11,7.9,17.9,15.8,25.3C1231.1,806.1,1238.2,813.8,1243.1,822.4z"/>
				</g>
				<g>
					<path fill="#FFC60B" d="M1195.3,858.6c2.7-14.3,2.2-28.5,11-42.8c6.7-14.3,22.8-28.5,10.8-42.8c-7.3,0-14.6,0-21.8,0&#10;&#9;&#9;&#9;&#9;&#9;&#9;c-7.3,0-14.6,0-21.8,0c-12,14.3,4.1,28.5,10.8,42.8C1193.1,830.1,1192.6,844.3,1195.3,858.6z"/>
					<path fill="#FFDF00" d="M1195.3,831.7c1.4-9.8,5-19.6,9.9-29.4c4.4-9.8,10.2-19.6,5.1-29.4c-5,0-10,0-15,0c-5,0-10,0-15,0&#10;&#9;&#9;&#9;&#9;&#9;&#9;c-5.1,9.8,0.6,19.6,5.1,29.4C1190.2,812.1,1193.9,821.9,1195.3,831.7z"/>
				</g>
				<g>
					<path fill="#FFC60B" d="M1086.5,813.5c12-8.2,21.7-18.6,38.1-22.5c14.9-5.3,36.3-4,37.9-22.6c-5.1-5.1-10.3-10.3-15.4-15.4&#10;&#9;&#9;&#9;&#9;&#9;&#9;c-5.1-5.1-10.3-10.3-15.4-15.4c-18.6,1.6-17.3,23.1-22.6,37.9C1105.1,791.8,1094.7,801.5,1086.5,813.5z"/>
					<path fill="#FFDF00" d="M1105.5,794.5c7.9-6,17.4-10.3,27.8-13.8c10.1-3.8,21-6.7,24.4-17.2c-3.5-3.5-7.1-7.1-10.6-10.6&#10;&#9;&#9;&#9;&#9;&#9;&#9;c-3.5-3.5-7.1-7.1-10.6-10.6c-10.5,3.3-13.4,14.3-17.2,24.4C1115.8,777.1,1111.4,786.6,1105.5,794.5z"/>
				</g>
				<g>
					<path fill="#FFC60B" d="M1041.4,704.8c14.3,2.7,28.5,2.2,42.8,11c14.3,6.7,28.5,22.8,42.8,10.8c0-7.3,0-14.6,0-21.8&#10;&#9;&#9;&#9;&#9;&#9;&#9;c0-7.3,0-14.6,0-21.8c-14.3-12-28.5,4.1-42.8,10.8C1070,702.6,1055.7,702.1,1041.4,704.8z"/>
					<path fill="#FFDF00" d="M1068.3,704.8c9.8,1.4,19.6,5,29.4,9.9c9.8,4.4,19.6,10.2,29.4,5.1c0-5,0-10,0-15c0-5,0-10,0-15&#10;&#9;&#9;&#9;&#9;&#9;&#9;c-9.8-5.1-19.6,0.6-29.4,5.1C1087.9,699.7,1078.1,703.4,1068.3,704.8z"/>
				</g>
				<g>
					<path fill="#FFC60B" d="M1086.5,596c8.2,12,18.6,21.7,22.5,38.1c5.3,14.9,4,36.3,22.6,37.9c5.1-5.1,10.3-10.3,15.4-15.4&#10;&#9;&#9;&#9;&#9;&#9;&#9;c5.1-5.1,10.3-10.3,15.4-15.4c-1.6-18.6-23.1-17.3-37.9-22.6C1108.2,614.6,1098.5,604.2,1086.5,596z"/>
					<path fill="#FFDF00" d="M1105.5,615c6,7.9,10.3,17.4,13.8,27.8c3.8,10.1,6.7,21,17.2,24.4c3.5-3.5,7.1-7.1,10.6-10.6&#10;&#9;&#9;&#9;&#9;&#9;&#9;c3.5-3.5,7.1-7.1,10.6-10.6c-3.3-10.5-14.3-13.4-24.4-17.2C1122.9,625.3,1113.4,620.9,1105.5,615z"/>
				</g>
				<g>
					<path fill="#FFC60B" d="M1195.3,550.9c-2.7,14.3-2.2,28.5-11,42.8c-6.7,14.3-22.8,28.5-10.8,42.8c7.3,0,14.6,0,21.8,0&#10;&#9;&#9;&#9;&#9;&#9;&#9;c7.3,0,14.6,0,21.8,0c12-14.3-4.1-28.5-10.8-42.8C1197.5,579.5,1198,565.2,1195.3,550.9z"/>
					<path fill="#FFDF00" d="M1195.3,577.8c-1.4,9.8-5,19.6-9.9,29.4c-4.4,9.8-10.2,19.6-5.1,29.4c5,0,10,0,15,0c5,0,10,0,15,0&#10;&#9;&#9;&#9;&#9;&#9;&#9;c5.1-9.8-0.6-19.6-5.1-29.4C1200.3,597.4,1196.6,587.6,1195.3,577.8z"/>
				</g>
				<g>
					<path fill="#FFC60B" d="M1304,596c-12,8.2-21.7,18.6-38.1,22.5c-14.9,5.3-36.3,4-37.9,22.6c5.1,5.1,10.3,10.3,15.4,15.4&#10;&#9;&#9;&#9;&#9;&#9;&#9;c5.1,5.1,10.3,10.3,15.4,15.4c18.6-1.6,17.3-23.1,22.6-37.9C1285.4,617.7,1295.9,608,1304,596z"/>
					<path fill="#FFDF00" d="M1285,615c-7.9,6-17.4,10.3-27.8,13.8c-10.1,3.8-21,6.7-24.4,17.2c3.5,3.5,7.1,7.1,10.6,10.6&#10;&#9;&#9;&#9;&#9;&#9;&#9;c3.5,3.5,7.1,7.1,10.6,10.6c10.5-3.3,13.4-14.3,17.2-24.4C1274.7,632.4,1279.1,622.9,1285,615z"/>
				</g>
				<g>
					<path fill="#FFC60B" d="M1349.1,704.8c-14.3-2.7-28.5-2.2-42.8-11c-14.3-6.7-28.5-22.8-42.8-10.8c0,7.3,0,14.6,0,21.8&#10;&#9;&#9;&#9;&#9;&#9;&#9;c0,7.3,0,14.6,0,21.8c14.3,12,28.5-4.1,42.8-10.8C1320.6,706.9,1334.8,707.5,1349.1,704.8z"/>
					<path fill="#FFDF00" d="M1322.2,704.8c-9.8-1.4-19.6-5-29.4-9.9c-9.8-4.4-19.6-10.2-29.4-5.1c0,5,0,10,0,15c0,5,0,10,0,15&#10;&#9;&#9;&#9;&#9;&#9;&#9;c9.8,5.1,19.6-0.6,29.4-5.1C1302.6,709.8,1312.4,706.1,1322.2,704.8z"/>
				</g>
				<g>
					<path fill="#FFC60B" d="M1304,813.5c-8.2-12-18.6-21.7-22.5-38.1c-5.3-14.9-4-36.3-22.6-37.9c-5.1,5.1-10.3,10.3-15.4,15.4&#10;&#9;&#9;&#9;&#9;&#9;&#9;c-5.1,5.1-10.3,10.3-15.4,15.4c1.6,18.6,23.1,17.3,37.9,22.6C1282.3,794.9,1292,805.4,1304,813.5z"/>
					<path fill="#FFDF00" d="M1285,794.5c-6-7.9-10.3-17.4-13.8-27.8c-3.8-10.1-6.7-21-17.2-24.4c-3.5,3.5-7.1,7.1-10.6,10.6&#10;&#9;&#9;&#9;&#9;&#9;&#9;c-3.5,3.5-7.1,7.1-10.6,10.6c3.3,10.5,14.3,13.4,24.4,17.2C1267.6,784.2,1277.1,788.6,1285,794.5z"/>
				</g>
			</g><path d="M 1278.600052 704.799988 A 83.300003 83.300003 0 0 1 1195.300049 788.099991 A 83.300003 83.300003 0 0 1 1112.000046 704.799988 A 83.300003 83.300003 0 0 1 1195.300049 621.499985 A 83.300003 83.300003 0 0 1 1278.600052 704.799988 Z" fill="#FFDF00" transform="matrix(1, 0, 0, 1, 1.1368683772161603e-13, 2.842170943040401e-14)"/><path d="M 1265.100052 704.799988 A 69.800003 69.800003 0 0 1 1195.300049 774.599991 A 69.800003 69.800003 0 0 1 1125.500046 704.799988 A 69.800003 69.800003 0 0 1 1195.300049 634.999985 A 69.800003 69.800003 0 0 1 1265.100052 704.799988 Z" fill="#FFC60B" transform="matrix(1, 0, 0, 1, 1.1368683772161603e-13, 2.842170943040401e-14)"/><path d="M 1242.00005 672 A 46.700001 27.4 0 0 1 1195.300049 699.4 A 46.700001 27.4 0 0 1 1148.600048 672 A 46.700001 27.4 0 0 1 1195.300049 644.6 A 46.700001 27.4 0 0 1 1242.00005 672 Z" fill="#FFDF00" transform="matrix(1, 0, 0, 1, 1.1368683772161603e-13, 2.842170943040401e-14)"/><path fill="#FAA61A" d="M1244.6,733c-27.3,27.3-71.5,27.3-98.8,0c-10.9-10.9-17.5-24.6-19.6-38.8c-3.2,21.2,3.3,43.6,19.6,60&#10;&#9;&#9;&#9;&#9;&#9;c27.3,27.3,71.5,27.3,98.8,0c16.3-16.3,22.9-38.8,19.6-60C1262.1,708.4,1255.6,722,1244.6,733z" transform="matrix(1, 0, 0, 1, 1.1368683772161603e-13, 2.842170943040401e-14)"/>
</svg>